<svg width="291" height="65" viewBox="0 0 291 65" fill="none" xmlns="http://www.w3.org/2000/svg">
<rect y="1.64795" width="290.286" height="53.1327" rx="12.3398" fill="white"/>
<path d="M58.8369 11.2314V27.5992V43.9669L75.5645 27.5992L58.8369 11.2314Z" fill="url(#paint0_linear_514_300)"/>
<path d="M80.056 23.2044L73.3041 19.3559L58.8369 11.1128V11.2313L75.5645 27.599L80.056 23.2044Z" fill="url(#paint1_linear_514_300)"/>
<path d="M58.8369 43.9668V44.0882L73.3041 35.8422L80.056 31.9966L75.5645 27.5991L58.8369 43.9668Z" fill="url(#paint2_linear_514_300)"/>
<path d="M80.0559 23.2051L75.5645 27.5996L80.0559 31.9971L87.7742 27.5996L80.0559 23.2051Z" fill="url(#paint3_linear_514_300)"/>
<path d="M142.715 32.4946H138.494V20.0364H142.801C144.037 20.0364 145.1 20.2859 145.988 20.7847C146.88 21.2794 147.566 21.9911 148.044 22.9198C148.523 23.8485 148.762 24.9597 148.762 26.2534C148.762 27.5511 148.521 28.6663 148.038 29.5991C147.56 30.5318 146.868 31.2476 145.964 31.7464C145.063 32.2452 143.981 32.4946 142.715 32.4946ZM140.751 30.542H142.606C143.474 30.542 144.198 30.3838 144.778 30.0675C145.357 29.7471 145.793 29.2706 146.085 28.6379C146.377 28.0012 146.523 27.2064 146.523 26.2534C146.523 25.3004 146.377 24.5096 146.085 23.881C145.793 23.2483 145.362 22.7759 144.79 22.4636C144.222 22.1473 143.516 21.9891 142.673 21.9891H140.751V30.542ZM154.885 32.6771C153.972 32.6771 153.181 32.4764 152.512 32.0749C151.843 31.6734 151.324 31.1117 150.955 30.3899C150.59 29.668 150.407 28.8245 150.407 27.8593C150.407 26.8941 150.59 26.0486 150.955 25.3227C151.324 24.5967 151.843 24.033 152.512 23.6316C153.181 23.2301 153.972 23.0293 154.885 23.0293C155.797 23.0293 156.588 23.2301 157.257 23.6316C157.926 24.033 158.443 24.5967 158.808 25.3227C159.177 26.0486 159.362 26.8941 159.362 27.8593C159.362 28.8245 159.177 29.668 158.808 30.3899C158.443 31.1117 157.926 31.6734 157.257 32.0749C156.588 32.4764 155.797 32.6771 154.885 32.6771ZM154.897 30.913C155.392 30.913 155.805 30.7772 156.138 30.5055C156.47 30.2297 156.718 29.8606 156.88 29.3983C157.046 28.936 157.129 28.421 157.129 27.8532C157.129 27.2814 157.046 26.7644 156.88 26.302C156.718 25.8357 156.47 25.4646 156.138 25.1888C155.805 24.9131 155.392 24.7752 154.897 24.7752C154.39 24.7752 153.968 24.9131 153.632 25.1888C153.299 25.4646 153.05 25.8357 152.883 26.302C152.721 26.7644 152.64 27.2814 152.64 27.8532C152.64 28.421 152.721 28.936 152.883 29.3983C153.05 29.8606 153.299 30.2297 153.632 30.5055C153.968 30.7772 154.39 30.913 154.897 30.913ZM162.892 32.4946L160.251 23.151H162.496L164.139 29.7207H164.224L165.903 23.151H168.123L169.802 29.6842H169.893L171.511 23.151H173.762L171.116 32.4946H168.823L167.071 26.1804H166.943L165.191 32.4946H162.892ZM177.502 27.0198V32.4946H175.299V23.151H177.404V24.7387H177.514C177.729 24.2155 178.071 23.7999 178.542 23.4916C179.016 23.1834 179.602 23.0293 180.3 23.0293C180.945 23.0293 181.506 23.1672 181.985 23.443C182.467 23.7187 182.841 24.1182 183.104 24.6414C183.372 25.1645 183.504 25.7992 183.5 26.5454V32.4946H181.297V26.886C181.297 26.2615 181.135 25.7728 180.811 25.42C180.49 25.0672 180.046 24.8908 179.479 24.8908C179.093 24.8908 178.751 24.9759 178.451 25.1462C178.154 25.3125 177.921 25.5538 177.751 25.8701C177.585 26.1865 177.502 26.5697 177.502 27.0198ZM187.94 20.0364V32.4946H185.738V20.0364H187.94ZM194.28 32.6771C193.368 32.6771 192.577 32.4764 191.908 32.0749C191.239 31.6734 190.72 31.1117 190.351 30.3899C189.986 29.668 189.803 28.8245 189.803 27.8593C189.803 26.8941 189.986 26.0486 190.351 25.3227C190.72 24.5967 191.239 24.033 191.908 23.6316C192.577 23.2301 193.368 23.0293 194.28 23.0293C195.193 23.0293 195.984 23.2301 196.653 23.6316C197.322 24.033 197.839 24.5967 198.204 25.3227C198.573 26.0486 198.757 26.8941 198.757 27.8593C198.757 28.8245 198.573 29.668 198.204 30.3899C197.839 31.1117 197.322 31.6734 196.653 32.0749C195.984 32.4764 195.193 32.6771 194.28 32.6771ZM194.292 30.913C194.787 30.913 195.201 30.7772 195.533 30.5055C195.866 30.2297 196.113 29.8606 196.276 29.3983C196.442 28.936 196.525 28.421 196.525 27.8532C196.525 27.2814 196.442 26.7644 196.276 26.302C196.113 25.8357 195.866 25.4646 195.533 25.1888C195.201 24.9131 194.787 24.7752 194.292 24.7752C193.786 24.7752 193.364 24.9131 193.027 25.1888C192.695 25.4646 192.445 25.8357 192.279 26.302C192.117 26.7644 192.036 27.2814 192.036 27.8532C192.036 28.421 192.117 28.936 192.279 29.3983C192.445 29.8606 192.695 30.2297 193.027 30.5055C193.364 30.7772 193.786 30.913 194.292 30.913ZM203.315 32.6832C202.723 32.6832 202.19 32.5778 201.715 32.3669C201.245 32.1519 200.872 31.8356 200.596 31.4179C200.324 31.0002 200.188 30.4852 200.188 29.8728C200.188 29.3456 200.286 28.9097 200.48 28.5649C200.675 28.2202 200.941 27.9445 201.277 27.7376C201.614 27.5308 201.993 27.3747 202.415 27.2692C202.841 27.1598 203.281 27.0807 203.735 27.032C204.282 26.9752 204.726 26.9245 205.067 26.8799C205.408 26.8313 205.655 26.7583 205.809 26.6609C205.967 26.5596 206.047 26.4034 206.047 26.1925V26.156C206.047 25.6978 205.911 25.3429 205.639 25.0915C205.367 24.8401 204.976 24.7143 204.465 24.7143C203.926 24.7143 203.498 24.832 203.181 25.0672C202.869 25.3024 202.658 25.5802 202.549 25.9006L200.493 25.6086C200.655 25.0408 200.923 24.5663 201.296 24.1851C201.669 23.7999 202.125 23.5119 202.664 23.3213C203.204 23.1267 203.8 23.0293 204.453 23.0293C204.903 23.0293 205.351 23.0821 205.797 23.1875C206.243 23.2929 206.651 23.4673 207.02 23.7106C207.389 23.9499 207.685 24.2764 207.908 24.69C208.135 25.1037 208.249 25.6207 208.249 26.2412V32.4946H206.132V31.2111H206.059C205.925 31.4706 205.736 31.714 205.493 31.9411C205.254 32.1641 204.952 32.3446 204.587 32.4825C204.226 32.6163 203.802 32.6832 203.315 32.6832ZM203.887 31.0651C204.329 31.0651 204.712 30.9779 205.037 30.8035C205.361 30.6251 205.611 30.3899 205.785 30.0979C205.963 29.8059 206.053 29.4876 206.053 29.1428V28.0418C205.984 28.0986 205.866 28.1513 205.7 28.2C205.538 28.2486 205.355 28.2912 205.152 28.3277C204.95 28.3642 204.749 28.3966 204.55 28.425C204.351 28.4534 204.179 28.4778 204.033 28.498C203.705 28.5426 203.41 28.6156 203.151 28.717C202.891 28.8184 202.687 28.9603 202.537 29.1428C202.387 29.3213 202.311 29.5524 202.311 29.8363C202.311 30.2419 202.46 30.548 202.756 30.7549C203.052 30.9617 203.429 31.0651 203.887 31.0651ZM213.93 32.6589C213.196 32.6589 212.539 32.4703 211.959 32.0931C211.379 31.716 210.921 31.1685 210.584 30.4507C210.248 29.7329 210.08 28.861 210.08 27.835C210.08 26.7968 210.25 25.9208 210.591 25.2071C210.935 24.4893 211.4 23.9479 211.984 23.5829C212.568 23.2139 213.218 23.0293 213.936 23.0293C214.484 23.0293 214.934 23.1226 215.287 23.3092C215.64 23.4916 215.919 23.7127 216.126 23.9722C216.333 24.2277 216.493 24.469 216.607 24.6961H216.698V20.0364H218.906V32.4946H216.741V31.0225H216.607C216.493 31.2496 216.329 31.4909 216.114 31.7464C215.899 31.9978 215.615 32.2128 215.262 32.3912C214.91 32.5697 214.466 32.6589 213.93 32.6589ZM214.545 30.8522C215.011 30.8522 215.408 30.7265 215.737 30.475C216.065 30.2196 216.315 29.8647 216.485 29.4105C216.655 28.9563 216.741 28.4271 216.741 27.8228C216.741 27.2186 216.655 26.6934 216.485 26.2473C216.319 25.8012 216.071 25.4545 215.743 25.2071C215.419 24.9597 215.019 24.836 214.545 24.836C214.054 24.836 213.644 24.9638 213.316 25.2192C212.987 25.4747 212.74 25.8276 212.574 26.2777C212.407 26.7279 212.324 27.2429 212.324 27.8228C212.324 28.4068 212.407 28.9279 212.574 29.3862C212.744 29.8404 212.993 30.1993 213.322 30.4629C213.654 30.7224 214.062 30.8522 214.545 30.8522ZM235.837 20.0364V32.4946H233.83L227.959 24.0087H227.856V32.4946H225.599V20.0364H227.619L233.483 28.5285H233.592V20.0364H235.837ZM242.274 32.6771C241.362 32.6771 240.571 32.4764 239.902 32.0749C239.233 31.6734 238.714 31.1117 238.345 30.3899C237.98 29.668 237.797 28.8245 237.797 27.8593C237.797 26.8941 237.98 26.0486 238.345 25.3227C238.714 24.5967 239.233 24.033 239.902 23.6316C240.571 23.2301 241.362 23.0293 242.274 23.0293C243.187 23.0293 243.978 23.2301 244.647 23.6316C245.316 24.033 245.833 24.5967 246.198 25.3227C246.567 26.0486 246.752 26.8941 246.752 27.8593C246.752 28.8245 246.567 29.668 246.198 30.3899C245.833 31.1117 245.316 31.6734 244.647 32.0749C243.978 32.4764 243.187 32.6771 242.274 32.6771ZM242.287 30.913C242.781 30.913 243.195 30.7772 243.528 30.5055C243.86 30.2297 244.107 29.8606 244.27 29.3983C244.436 28.936 244.519 28.421 244.519 27.8532C244.519 27.2814 244.436 26.7644 244.27 26.302C244.107 25.8357 243.86 25.4646 243.528 25.1888C243.195 24.9131 242.781 24.7752 242.287 24.7752C241.78 24.7752 241.358 24.9131 241.021 25.1888C240.689 25.4646 240.439 25.8357 240.273 26.302C240.111 26.7644 240.03 27.2814 240.03 27.8532C240.03 28.421 240.111 28.936 240.273 29.3983C240.439 29.8606 240.689 30.2297 241.021 30.5055C241.358 30.7772 241.78 30.913 242.287 30.913ZM250.281 32.4946L247.641 23.151H249.886L251.528 29.7207H251.613L253.292 23.151H255.513L257.192 29.6842H257.283L258.901 23.151H261.152L258.506 32.4946H256.212L254.46 26.1804H254.333L252.581 32.4946H250.281Z" fill="black"/>
<path d="M36.8364 20.4393C36.6702 20.5676 33.7362 22.2129 33.7362 25.8711C33.7362 30.1024 37.4697 31.5993 37.5814 31.6364C37.5642 31.7277 36.9883 33.6865 35.6129 35.6824C34.3866 37.4388 33.1058 39.1924 31.1574 39.1924C29.209 39.1924 28.7075 38.0661 26.4583 38.0661C24.2663 38.0661 23.4869 39.2294 21.7047 39.2294C19.9225 39.2294 18.6789 37.6042 17.2491 35.6083C15.593 33.2645 14.2549 29.6234 14.2549 26.1676C14.2549 20.6247 17.8766 17.685 21.4411 17.685C23.3351 17.685 24.9139 18.9224 26.103 18.9224C27.2348 18.9224 28.9998 17.6108 31.1545 17.6108C31.9711 17.6108 34.9052 17.685 36.8364 20.4393ZM30.1316 15.2642C31.0227 14.2121 31.6531 12.7522 31.6531 11.2924C31.6531 11.0899 31.6359 10.8846 31.5986 10.7192C30.1488 10.7734 28.4239 11.6801 27.3838 12.8805C26.5671 13.8044 25.805 15.2642 25.805 16.744C25.805 16.9664 25.8422 17.1889 25.8594 17.2601C25.9511 17.2772 26.1001 17.2972 26.2491 17.2972C27.5499 17.2972 29.186 16.4304 30.1316 15.2642Z" fill="black"/>
<path d="M103.674 1V64.5" stroke="black" stroke-linecap="round"/>
<defs>
<linearGradient id="paint0_linear_514_300" x1="67.1992" y1="11.2314" x2="67.1992" y2="43.9669" gradientUnits="userSpaceOnUse">
<stop stop-color="#257CB0"/>
<stop offset="0.21" stop-color="#3C8FB3"/>
<stop offset="0.74" stop-color="#73BDBA"/>
<stop offset="1" stop-color="#89CFBD"/>
</linearGradient>
<linearGradient id="paint1_linear_514_300" x1="58.834" y1="19.3559" x2="80.056" y2="19.3559" gradientUnits="userSpaceOnUse">
<stop stop-color="#52C1AD"/>
<stop offset="1" stop-color="#DEE89A"/>
</linearGradient>
<linearGradient id="paint2_linear_514_300" x1="69.445" y1="27.5991" x2="69.445" y2="44.0882" gradientUnits="userSpaceOnUse">
<stop stop-color="#EC413D"/>
<stop offset="0.19" stop-color="#D74352"/>
<stop offset="0.74" stop-color="#A04888"/>
<stop offset="1" stop-color="#8A4A9D"/>
</linearGradient>
<linearGradient id="paint3_linear_514_300" x1="81.6693" y1="23.2051" x2="81.6693" y2="31.9971" gradientUnits="userSpaceOnUse">
<stop stop-color="#F58879"/>
<stop offset="0.62" stop-color="#FBB276"/>
<stop offset="1" stop-color="#FEC874"/>
</linearGradient>
</defs>
</svg>
